<svg width="30" height="30" viewBox="0 0 30 30" fill="none" xmlns="http://www.w3.org/2000/svg">
<path d="M14.9625 30V28.125H26.9719C27.2594 28.125 27.5238 28.005 27.765 27.765C28.0063 27.525 28.1262 27.26 28.125 26.97V3.03C28.125 2.74125 28.005 2.47625 27.765 2.235C27.525 1.99375 27.26 1.87375 26.97 1.875H14.9644V0H26.9719C27.8344 0 28.5544 0.289375 29.1319 0.868125C29.7094 1.44687 29.9988 2.1675 30 3.03V26.9719C30 27.8344 29.7106 28.555 29.1319 29.1337C28.5531 29.7125 27.8331 30.0012 26.9719 30H14.9625ZM13.6313 21.6356L12.3131 20.2856L16.6631 15.9375H0V14.0625H16.6631L12.3131 9.7125L13.6294 8.36625L20.265 15L13.6313 21.6356Z" fill="#551812"/>
</svg>
