<?xml version="1.0" encoding="UTF-8"?>
<svg id="Layer_3" data-name="Layer 3" xmlns="http://www.w3.org/2000/svg" viewBox="0 0 532.53 532.53">
  <defs>
    <style>
      .cls-1, .cls-2 {
        fill: #fff;
      }

      .cls-3 {
        stroke: #fff;
        stroke-width: 4px;
      }

      .cls-3, .cls-4 {
        fill: #e6f188;
      }

      .cls-5, .cls-2, .cls-6 {
        stroke: #e6f188;
      }

      .cls-5, .cls-6 {
        fill: none;
      }

      .cls-6 {
        stroke-width: 3px;
      }
    </style>
  </defs>
  <path class="cls-4" d="M256.01,350.37l3.32-32.29-7.91-3.25-8.75-1.43-14.01,29.29c-4.61,3.82-14.53,12.24-25.86,23.12,5.04-15.25,8.39-28.2,9.85-34.12l20.24-25.38-4.9-7.01-6.59-5.94-27.61,17.07c-5.94,.72-18.84,2.45-34.25,5.48,12.49-10.12,22.31-19.19,26.73-23.38l30.75-10.41-.33-8.54-2.36-8.54-32.42-.58c-5.41-2.62-17.18-8.14-31.78-13.91,15.96-1.76,29.13-4.09,35.12-5.23l31.49,7.86,4.34-7.37,2.66-8.46-27-18.02c-3.12-5.1-10.06-16.12-19.22-28.88,14.39,7.16,26.73,12.32,32.38,14.59l22.25,23.64,7.64-3.85,6.81-5.68-12.98-29.75c.13-5.98,.25-18.99-.56-34.68,8.24,13.8,15.83,24.81,19.35,29.78l5.94,31.92,8.51,.89,8.8-1.1,5.17-32.04c3.37-5,10.59-16.01,18.45-29.79-.57,16.22-.15,29.74,.12,35.86l-12.3,30.04,6.67,5.35,7.99,3.85,21.7-24.14c5.5-2.36,17.39-7.64,31.33-14.88-9.14,13.22-16.02,24.69-19.08,29.95l-26.58,18.63,2.72,8.11,4.64,7.56,31.31-8.58c5.91,.99,18.77,2.98,34.41,4.42-14.84,6.16-26.8,12.09-32.25,14.88l-32.43,1.3-2.1,8.29-.18,8.87,30.97,9.71c4.43,4.02,14.18,12.64,26.56,22.32-15.83-2.82-29.12-4.31-35.18-4.91l-27.99-16.44-6.25,5.84-4.94,7.36,20.81,24.91c1.56,5.79,5.1,18.32,10.28,33.13-11.79-10.93-22.16-19.36-26.94-23.14l-14.67-28.96-8.41,1.54-8.14,3.52,4.05,32.21c-1.81,5.7-5.61,18.15-9.26,33.44-4.01-15.57-8.18-28.28-10.15-34.04Z"/>
  <path class="cls-5" d="M266.26,216.52c-27.91,0-50.62,22.71-50.62,50.62s22.71,50.62,50.62,50.62,50.62-22.71,50.62-50.62-22.71-50.62-50.62-50.62Zm0,80.69c-16.61,0-30.07-13.46-30.07-30.07s13.46-30.07,30.07-30.07,30.07,13.46,30.07,30.07-13.46,30.07-30.07,30.07Z"/>
  <path class="cls-6" d="M266.26,1.5C120.04,1.5,1.5,120.04,1.5,266.26s118.54,264.76,264.76,264.76,264.76-118.54,264.76-264.76S412.49,1.5,266.26,1.5Zm0,333.53c-37.43,0-67.89-30.45-67.89-67.89s30.45-67.89,67.89-67.89,67.89,30.45,67.89,67.89-30.45,67.89-67.89,67.89Z"/>
  <path class="cls-3" d="M334.15,267.15c0-37.43-30.45-67.89-67.89-67.89s-67.89,30.45-67.89,67.89,30.45,67.89,67.89,67.89,67.89-30.45,67.89-67.89Zm-67.89,50.62c-27.91,0-50.62-22.71-50.62-50.62s22.71-50.62,50.62-50.62,50.62,22.71,50.62,50.62-22.71,50.62-50.62,50.62Z"/>
  <path class="cls-4" d="M266.56,178.46s-85.98-117.04-31.27-131.23c54.71-14.18,31.27,131.23,31.27,131.23Z"/>
  <path class="cls-1" d="M262.01,159.55c-18.34-27.93-44.23-74.45-36.63-95.8,1.79-5.04,5.51-8.14,11.68-9.74,1.92-.5,3.73-.75,5.38-.75,4.22,0,7.56,1.61,10.51,5.08,14.66,17.21,12.59,68.89,9.07,101.21Z"/>
  <path class="cls-4" d="M266.56,178.46s-26.57-142.78,28.87-131.78c55.44,11-28.87,131.78-28.87,131.78Z"/>
  <path class="cls-1" d="M270.67,159.35c-4.2-32.02-7.25-83.12,7.38-100.72,3.15-3.79,6.82-5.55,11.54-5.55,1.4,0,2.9,.16,4.48,.47,8.02,1.59,10.53,5.69,11.71,8.63,4.72,11.72-1.46,35.23-17.41,66.2-6.06,11.78-12.55,22.71-17.7,30.97Z"/>
  <path class="cls-4" d="M266.56,178.48s-71.54-166.92-.88-168.68,.88,168.68,.88,168.68Z"/>
  <path class="cls-1" d="M266.41,159.27c-14.7-38.94-35.25-107.77-18.97-133.13,3.96-6.17,9.81-9.14,18.41-9.35,.3,0,.61-.01,.91-.01,8.06,0,13.58,2.64,17.39,8.32,16.49,24.56-3.45,94.57-17.74,134.17Z"/>
  <path class="cls-4" d="M218.55,192.33s-135.61-51.99-97.24-93.5c38.36-41.51,97.24,93.5,97.24,93.5Z"/>
  <path class="cls-1" d="M204.49,178.88c-30.53-13.59-77.46-38.73-82.6-60.8-1.22-5.21,.23-9.82,4.56-14.5,1.35-1.46,2.73-2.65,4.12-3.54,3.55-2.28,7.23-2.73,11.59-1.41,21.64,6.56,47.83,51.15,62.34,80.25Z"/>
  <path class="cls-4" d="M218.55,192.33s-99.53-105.76-46.94-126.47c52.59-20.71,46.94,126.47,46.94,126.47Z"/>
  <path class="cls-1" d="M211.68,174.03c-20.84-24.67-51.03-66.01-48.23-88.73,.6-4.89,2.73-8.36,6.71-10.91,1.17-.75,2.53-1.43,4.02-2.02,7.61-3,11.93-.9,14.52,.93,10.3,7.31,17.81,30.43,21.14,65.11,1.27,13.19,1.72,25.89,1.85,35.63Z"/>
  <path class="cls-4" d="M218.55,192.34S68.14,90.58,126.63,50.9c58.49-39.68,91.92,141.44,91.92,141.44Z"/>
  <path class="cls-1" d="M208.05,176.26c-33.41-24.81-87.91-71.62-87.92-101.75,0-7.33,3.31-12.99,10.44-17.82,.25-.17,.51-.34,.76-.5,6.78-4.35,12.86-5.12,19.13-2.4,27.15,11.75,48.21,81.43,57.6,122.47Z"/>
  <path class="cls-4" d="M185.65,229.94s-142.19,29.56-132.35-26.1c9.84-55.66,132.35,26.1,132.35,26.1Z"/>
  <path class="cls-1" d="M166.55,226.23c-33.03,5.07-86.1,9.28-102.36-6.5-3.84-3.73-5.11-8.39-4-14.67,.35-1.95,.87-3.7,1.55-5.2,1.75-3.83,4.61-6.2,8.99-7.45,21.75-6.18,67.89,17.18,95.82,33.82Z"/>
  <path class="cls-4" d="M185.65,229.94s-140.91-35.18-107.85-81.03c33.05-45.85,107.85,81.03,107.85,81.03Z"/>
  <path class="cls-1" d="M169.98,218.26c-30.87-9.49-78.62-27.95-88.54-48.58-2.14-4.44-2.22-8.51-.25-12.81,.58-1.27,1.35-2.57,2.29-3.88,4.78-6.64,9.55-7.21,12.72-7.06,12.62,.58,31.43,15.97,52.98,43.35,8.19,10.41,15.44,20.85,20.81,28.98Z"/>
  <path class="cls-4" d="M185.66,229.96S4.11,225.64,31.87,160.65c27.76-65,153.79,69.31,153.79,69.31Z"/>
  <path class="cls-1" d="M168.13,222.11c-41.53-2.82-112.67-12.73-128.97-38.07-3.96-6.16-4.24-12.72-.85-20.64,.12-.28,.24-.56,.37-.83,3.35-7.33,8.05-11.26,14.8-12.36,29.19-4.79,84.58,42.44,114.66,71.9Z"/>
  <path class="cls-4" d="M178.3,279.37s-103.65,101.73-125.46,49.58c-21.81-52.14,125.46-49.58,125.46-49.58Z"/>
  <path class="cls-1" d="M160.23,286.57c-25.05,22.12-67.42,54.35-89.63,49.86-5.25-1.06-8.84-4.3-11.3-10.18-.76-1.83-1.27-3.59-1.51-5.22-.6-4.17,.53-7.71,3.54-11.12,14.96-16.96,66.4-22.25,98.9-23.34Z"/>
  <path class="cls-4" d="M178.3,279.37s-137.56,46.56-134.54-9.88c3.03-56.44,134.54,9.88,134.54,9.88Z"/>
  <path class="cls-1" d="M158.81,278.02c-31.1,8.71-81.25,18.98-100.75,6.99-4.2-2.58-6.47-5.96-7.14-10.64-.2-1.38-.25-2.9-.17-4.5,.44-8.17,4.14-11.23,6.88-12.82,10.93-6.33,35.08-3.55,68,7.84,12.52,4.33,24.26,9.2,33.17,13.13Z"/>
  <path class="cls-4" d="M178.32,279.38S23.25,373.88,11.47,304.2c-11.78-69.69,166.85-24.81,166.85-24.81Z"/>
  <path class="cls-1" d="M159.33,282.25c-36.46,20.08-101.67,50.19-129.08,37.68-6.67-3.04-10.44-8.41-11.87-16.9-.05-.3-.1-.6-.14-.9-1.14-7.97,.69-13.82,5.77-18.4,21.97-19.81,94.1-10.01,135.33-1.48Z"/>
  <path class="cls-4" d="M198.84,324.94s-32.22,141.61-78.76,109.53c-46.53-32.08,78.76-109.53,78.76-109.53Z"/>
  <path class="cls-1" d="M187.52,340.76c-9.12,32.15-27.34,82.17-48.46,90.4-4.99,1.94-9.76,1.16-15.01-2.46-1.63-1.13-3.01-2.33-4.09-3.58-2.76-3.19-3.72-6.77-3.04-11.27,3.42-22.35,43.84-54.61,70.59-73.1Z"/>
  <path class="cls-4" d="M198.84,324.94s-90.57,113.53-118.53,64.41c-27.96-49.12,118.53-64.41,118.53-64.41Z"/>
  <path class="cls-1" d="M181.71,334.33c-21.46,24.13-58.1,59.88-80.99,60.34-4.93,.1-8.66-1.52-11.75-5.09-.91-1.06-1.78-2.3-2.57-3.69-4.05-7.11-2.59-11.68-1.14-14.5,5.77-11.24,27.59-21.95,61.45-30.17,12.87-3.13,25.38-5.38,35-6.88Z"/>
  <path class="cls-4" d="M198.86,324.93s-79.38,163.33-126.96,111.06c-47.58-52.26,126.96-111.06,126.96-111.06Z"/>
  <path class="cls-1" d="M184.43,337.61c-19.82,36.6-58.41,97.18-88.23,101.47-7.25,1.05-13.33-1.43-19.12-7.8-.2-.22-.41-.45-.6-.68-5.27-6.09-6.89-12-5.09-18.6,7.78-28.54,73.76-59.29,113.05-74.4Z"/>
  <path class="cls-4" d="M240.75,352.16s49.44,136.56-7.05,134.72c-56.49-1.84,7.05-134.72,7.05-134.72Z"/>
  <path class="cls-1" d="M239.78,371.59c9.71,31.98,21.41,83.91,8.09,102.25-3.15,4.33-7.58,6.25-13.95,6.04-1.98-.07-3.79-.33-5.37-.8-4.05-1.19-6.79-3.68-8.65-7.84-9.21-20.66,7.37-69.64,19.88-99.66Z"/>
  <path class="cls-4" d="M240.75,352.16s-14.83,144.47-64.91,118.26c-50.08-26.21,64.91-118.26,64.91-118.26Z"/>
  <path class="cls-1" d="M231.41,369.33c-5.01,31.9-16.51,81.79-35.52,94.54-4.09,2.74-8.11,3.4-12.64,2.07-1.34-.39-2.74-.97-4.16-1.72-7.25-3.79-8.49-8.43-8.8-11.58-1.22-12.57,11.35-33.38,35.39-58.59,9.14-9.59,18.45-18.24,25.73-24.71Z"/>
  <path class="cls-4" d="M240.76,352.15s21.5,180.32-46.78,162.07c-68.28-18.25,46.78-162.07,46.78-162.07Z"/>
  <path class="cls-1" d="M235.48,370.62c3.11,41.5,3.39,113.34-19.38,133.07-5.54,4.8-11.99,6-20.31,3.78-.29-.08-.59-.16-.87-.24-7.73-2.28-12.29-6.37-14.34-12.89-8.88-28.22,30.01-89.75,54.9-123.7Z"/>
  <path class="cls-4" d="M290.72,352.42s115.41,88.17,66.88,117.16c-48.52,28.99-66.88-117.16-66.88-117.16Z"/>
  <path class="cls-1" d="M300.41,369.29c25.45,21.65,63.37,59.02,62.08,81.65-.31,5.34-3,9.36-8.47,12.63-1.7,1.02-3.37,1.77-4.95,2.23-4.05,1.19-7.7,.57-11.51-1.92-18.91-12.4-31.45-62.57-37.14-94.59Z"/>
  <path class="cls-4" d="M290.72,352.42s65.62,129.56,9.32,134.58c-56.3,5.02-9.32-134.58-9.32-134.58Z"/>
  <path class="cls-1" d="M292.15,371.91c13.03,29.55,30.32,77.73,21.22,98.74-1.96,4.52-4.98,7.25-9.52,8.57-1.34,.39-2.83,.66-4.43,.8-8.15,.73-11.7-2.5-13.66-4.99-7.82-9.92-8.5-34.22-1.89-68.43,2.51-13.01,5.66-25.32,8.29-34.7Z"/>
  <path class="cls-4" d="M290.73,352.41s115.56,140.09,48.25,161.63c-67.31,21.55-48.25-161.63-48.25-161.63Z"/>
  <path class="cls-1" d="M296.27,370.79c25.05,33.24,64.11,93.52,55.62,122.43-2.06,7.03-6.84,11.53-15.04,14.15-.29,.09-.58,.18-.87,.27-7.73,2.26-13.78,1.28-19.03-3.1-22.73-18.94-23.26-91.73-20.68-133.75Z"/>
  <path class="cls-4" d="M332.91,325.62s144.75,11.79,119.6,62.41c-25.15,50.62-119.6-62.41-119.6-62.41Z"/>
  <path class="cls-1" d="M350.18,334.58c33.12,4.46,85.21,15.4,96.36,35.14,2.63,4.66,2.54,9.49-.3,15.2-.88,1.78-1.88,3.31-2.96,4.55-2.76,3.19-6.17,4.65-10.72,4.61-22.62-.21-60.28-35.65-82.38-59.5Z"/>
  <path class="cls-4" d="M332.91,325.62s125.24,73.53,80.59,108.19c-44.65,34.65-80.59-108.19-80.59-108.19Z"/>
  <path class="cls-1" d="M344.64,341.25c26.93,17.82,67.52,49.01,71.22,71.6,.79,4.86-.28,8.79-3.37,12.36-.92,1.05-2.03,2.09-3.29,3.07-6.46,5.02-11.19,4.22-14.19,3.19-11.94-4.12-25.64-24.2-38.58-56.54-4.92-12.3-8.93-24.36-11.79-33.67Z"/>
  <path class="cls-4" d="M332.9,325.61s172.94,55.39,127.96,109.91c-44.98,54.51-127.96-109.91-127.96-109.91Z"/>
  <path class="cls-1" d="M347.5,338.08c39.04,14.43,104.49,44.03,112.97,72.94,2.06,7.03,.47,13.4-5.01,20.04-.19,.23-.39,.47-.58,.69-5.28,6.08-10.9,8.53-17.69,7.68-29.36-3.65-69.15-64.6-89.69-101.35Z"/>
  <path class="cls-4" d="M353.91,280.28s128.16-68.32,134.36-12.14c6.2,56.18-134.36,12.14-134.36,12.14Z"/>
  <path class="cls-1" d="M373.28,278.47c30.27-14.15,80.02-33.1,100.06-22.52,4.73,2.5,7.26,6.61,7.96,12.95,.21,1.97,.21,3.8-.03,5.43-.6,4.17-2.68,7.25-6.53,9.67-19.14,12.05-69.98,2.59-101.47-5.53Z"/>
  <path class="cls-4" d="M353.91,280.28s145.11-5.83,126.28,47.46c-18.84,53.29-126.28-47.46-126.28-47.46Z"/>
  <path class="cls-1" d="M372.23,287.08c32.29,.43,83.3,4.74,98.63,21.74,3.29,3.66,4.52,7.54,3.84,12.22-.2,1.38-.58,2.85-1.11,4.37-2.72,7.71-7.14,9.6-10.22,10.35-12.27,2.99-34.66-6.5-63.02-26.72-10.79-7.69-20.68-15.67-28.12-21.96Z"/>
  <path class="cls-4" d="M353.9,280.27s175.44-46.88,167.06,23.3c-8.37,70.17-167.06-23.3-167.06-23.3Z"/>
  <path class="cls-1" d="M372.93,282.87c40.64-8.96,111.71-19.44,134.47,.3,5.54,4.8,7.64,11.02,6.62,19.56-.04,.3-.08,.6-.12,.9-1.16,7.97-4.57,13.07-10.73,16.03-26.67,12.8-93.1-16.97-130.24-36.79Z"/>
  <path class="cls-4" d="M347.07,230.77s70.89-126.75,106.47-82.84c35.58,43.92-106.47,82.84-106.47,82.84Z"/>
  <path class="cls-1" d="M362.39,218.78c17.82-28.27,49.43-71.1,72.01-73.04,5.33-.46,9.69,1.64,13.7,6.59,1.25,1.54,2.23,3.08,2.91,4.59,1.75,3.84,1.66,7.54-.27,11.67-9.59,20.48-57.48,40.01-88.36,50.19Z"/>
  <path class="cls-4" d="M347.07,230.77s118.94-83.34,131.9-28.33c12.96,55.02-131.9,28.33-131.9,28.33Z"/>
  <path class="cls-1" d="M366.16,226.59c27.4-17.09,72.64-41.04,94.73-35.02,4.75,1.3,7.88,3.91,9.84,8.21,.58,1.27,1.06,2.71,1.42,4.27,1.88,7.96-.81,11.94-3,14.23-8.71,9.15-32.67,13.27-67.46,11.59-13.23-.64-25.87-2.01-35.53-3.28Z"/>
  <path class="cls-4" d="M347.06,230.77s122.27-134.27,153.15-70.7c30.89,63.57-153.15,70.7-153.15,70.7Z"/>
  <path class="cls-1" d="M364.47,222.67c29.35-29.51,83.47-76.74,113.29-72.43,7.25,1.04,12.38,5.14,16.14,12.88,.13,.27,.26,.55,.39,.82,3.34,7.33,3.22,13.46-.37,19.28-15.52,25.18-87.5,36.05-129.46,39.45Z"/>
  <path class="cls-4" d="M314.56,192.82s-8.87-144.96,44.8-127.25c53.67,17.71-44.8,127.25-44.8,127.25Z"/>
  <path class="cls-1" d="M320.97,174.45c-.28-33.42,3.15-86.54,21.11-100.37,4.24-3.27,9.04-3.86,15.09-1.86,1.88,.62,3.54,1.39,4.93,2.29,3.54,2.28,5.48,5.45,6.08,9.96,3,22.42-26.73,64.73-47.21,89.99Z"/>
  <path class="cls-4" d="M314.56,192.82s55.01-134.41,95.66-95.13c40.64,39.28-95.66,95.13-95.66,95.13Z"/>
  <path class="cls-1" d="M328.36,178.98c13.81-29.19,38.93-73.8,60.77-80.67,4.7-1.48,8.74-.97,12.71,1.59,1.17,.76,2.36,1.71,3.51,2.83,5.88,5.68,5.77,10.48,5.17,13.6-2.38,12.41-20.31,28.82-50.5,46.21-11.48,6.62-22.85,12.3-31.66,16.45Z"/>
  <path class="cls-4" d="M314.54,192.82S344.83,13.77,405.18,50.56c60.35,36.78-90.63,142.26-90.63,142.26Z"/>
  <path class="cls-1" d="M324.82,176.6c8.74-40.69,28.75-109.68,56.17-122.18,6.67-3.04,13.2-2.37,20.54,2.11,.26,.16,.52,.32,.77,.48,6.77,4.37,9.99,9.58,10.12,16.42,.55,29.58-54.13,77.62-87.6,103.17Z"/>
  <path class="cls-2" d="M266.26,237.08c-16.61,0-30.07,13.46-30.07,30.07s13.46,30.07,30.07,30.07,30.07-13.46,30.07-30.07-13.46-30.07-30.07-30.07Z"/>
</svg>